<?xml version="1.0" encoding="UTF-8" standalone="no"?>
<svg
   xmlns:dc="http://purl.org/dc/elements/1.1/"
   xmlns:cc="http://creativecommons.org/ns#"
   xmlns:rdf="http://www.w3.org/1999/02/22-rdf-syntax-ns#"
   xmlns:svg="http://www.w3.org/2000/svg"
   xmlns="http://www.w3.org/2000/svg"
   xmlns:sodipodi="http://sodipodi.sourceforge.net/DTD/sodipodi-0.dtd"
   xmlns:inkscape="http://www.inkscape.org/namespaces/inkscape"
   width="4000"
   height="4000"
   viewBox="0 0 4000 4000"
   version="1.1"
   id="svg371"
   sodipodi:docname="Logo_Vectors_only_date.svg"
   inkscape:version="0.92.5 (2060ec1f9f, 2020-04-08)">
  <metadata
     id="metadata375">
    <rdf:RDF>
      <cc:Work
         rdf:about="">
        <dc:format>image/svg+xml</dc:format>
        <dc:type
           rdf:resource="http://purl.org/dc/dcmitype/StillImage" />
        <dc:title />
      </cc:Work>
    </rdf:RDF>
  </metadata>
  <sodipodi:namedview
     pagecolor="#ffffff"
     bordercolor="#666666"
     borderopacity="1"
     objecttolerance="10"
     gridtolerance="10"
     guidetolerance="10"
     inkscape:pageopacity="0"
     inkscape:pageshadow="2"
     inkscape:window-width="2560"
     inkscape:window-height="1306"
     id="namedview373"
     showgrid="false"
     inkscape:zoom="0.472"
     inkscape:cx="1484.261"
     inkscape:cy="1738.4235"
     inkscape:window-x="0"
     inkscape:window-y="0"
     inkscape:window-maximized="1"
     inkscape:current-layer="svg371" />
  <defs
     id="defs355">
    <style
       id="style353">
      .cls-1, .cls-2, .cls-3 {
        fill: #074648;
      }

      .cls-1 {
        fill-rule: evenodd;
      }

      .cls-2, .cls-3 {
        font-size: 66.667px;
        font-family: Montserrat;
      }

      .cls-2 {
        font-weight: 800;
      }

      .cls-3 {
        font-weight: 500;
      }
    </style>
    <clipPath
       clipPathUnits="userSpaceOnUse"
       id="clipPath436">
      <path
         d="M 0,841.9 H 595.3 V 0 H 0 Z"
         id="path434"
         inkscape:connector-curvature="0" />
    </clipPath>
  </defs>
  <path
     class="cls-1"
     d="M1163.2,1405.89l5.52,10.65,154.58,954.8-86.11,13.25Z"
     id="path360" />
  <text
     id="OCEANIA_2020_"
     data-name="OCEANIA 2020  "
     class="cls-2"
     transform="scale(0.96386026,1.0374948)"
     style="font-style:normal;font-variant:normal;font-weight:bold;font-stretch:normal;font-size:252.03999329px;font-family:Ubuntu;-inkscape-font-specification:'Ubuntu, Bold';font-variant-ligatures:normal;font-variant-caps:normal;font-variant-numeric:normal;font-feature-settings:normal;text-align:start;writing-mode:lr-tb;text-anchor:start;fill:#074648;stroke-width:4.25332403"
     x="1396.1724"
     y="2012.4213">
    <tspan
       sodipodi:role="line"
       id="tspan936"
       x="1396.1724"
       y="2012.4213">OCEANIA 2020</tspan>
  </text>
  <text
     id="20 November"
     data-name="20 November"
     class="cls-3"
     transform="scale(0.79120021,1.2639026)"
     style="font-style:normal;font-variant:normal;font-weight:bold;font-stretch:normal;font-size:191.99999976px;font-family:Ubuntu;-inkscape-font-specification:'Ubuntu, Bold';font-variant-ligatures:normal;font-variant-caps:normal;font-variant-numeric:normal;font-feature-settings:normal;text-align:start;writing-mode:lr;text-anchor:start;fill:#074648;stroke-width:500;"
     x="1740.8829"
     y="1851.1675">
    <tspan
       sodipodi:role="line"
       id="tspan884"
       x="1740.8829"
       y="1851.1675"
       style="font-style:normal;font-variant:normal;font-weight:bold;font-stretch:normal;font-size:191.99999976px;font-family:Ubuntu;-inkscape-font-specification:'Ubuntu, Bold';font-variant-ligatures:normal;font-variant-caps:normal;font-variant-numeric:normal;font-feature-settings:normal;text-align:start;writing-mode:lr;text-anchor:start;stroke-width:500;">20 November</tspan>
  </text>
  <path
     class="cls-1"
     d="m 2954.9446,2284.06 c -62.9171,25.47 -116.5903,25.47 -179.5197,0 -41.0191,-16.62 -76.0584,-16.62 -117.0776,0 -62.3325,25.22 -113.1559,25.22 -175.4884,0 -41.482,-16.81 -69.506,-16.81 -111.0247,0 l -17.1115,-12.33 c 50.4458,-20.41 92.829,-21.24 145.2722,0 49.4349,20.02 85.9234,22.39 141.2408,0 52.4432,-21.24 101.2082,-20.28 151.3252,0 51.4445,20.84 91.8059,21.65 145.2599,0 52.4797,-21.24 86.7761,-21.24 139.2192,0 l -17.1238,12.33 c -42.1641,-17.09 -62.7832,-17.09 -104.9716,0 z m 0,-41.81 c -62.9171,25.47 -116.5903,25.47 -179.5197,0 -41.0191,-16.62 -76.0584,-16.62 -117.0776,0 -62.3325,25.23 -113.1559,25.23 -175.4884,0 -41.482,-16.81 -69.506,-16.81 -111.0247,0 l -17.1115,-12.33 c 50.4458,-20.42 92.829,-21.24 145.2722,0 49.4349,20.02 85.9234,22.4 141.2408,0 52.4432,-21.24 101.2082,-20.28 151.3252,0 51.4445,20.84 91.8059,21.65 145.2599,0 52.4797,-21.24 86.7761,-21.24 139.2192,0 l -17.1238,12.33 c -42.1641,-17.09 -62.7832,-17.09 -104.9716,0 z m -454.9497,71.29 c 49.4349,20.03 85.9234,22.39 141.2408,0 52.4432,-21.24 101.2082,-20.29 151.3252,0 51.4445,20.84 91.8059,21.66 145.2599,0 52.4797,-21.24 86.7761,-21.24 139.2192,0 l -17.1238,12.32 c -42.1641,-17.07 -62.7832,-17.07 -104.9716,0 -62.9171,25.48 -116.5903,25.49 -179.5197,0 -41.0191,-16.61 -76.0584,-16.61 -117.0776,0 -62.3325,25.24 -113.1559,25.24 -175.4884,0 -41.482,-16.8 -69.506,-16.8 -111.0247,0 l -17.1115,-12.32 c 50.4458,-20.42 92.829,-21.24 145.2722,0 z"
     id="path368"
     inkscape:connector-curvature="0"
     style="fill:#074648;fill-rule:evenodd;stroke-width:1.10358906" />
  <g
     transform="matrix(2.7680057,0,0,-2.7680057,363.8894,2522.7383)"
     id="g430"
     style="fill:#d59c0f;fill-opacity:1">
    <g
       id="g432"
       clip-path="url(#clipPath436)"
       style="fill:#d59c0f;fill-opacity:1">
      <g
         id="g438"
         transform="translate(288.1619,424.65)"
         style="fill:#d59c0f;fill-opacity:1">
        <path
           d="m 0,0 -49.8,51.4 c 0,0 -5,4.8 -3.4,7.6 L -88,10.2 c 0,0 -12,-13.2 55.6,-65.8 l 35,34.2 z"
           style="fill:#d59c0f;fill-opacity:1;fill-rule:nonzero;stroke:none"
           id="path440"
           inkscape:connector-curvature="0" />
      </g>
      <g
         id="g442"
         transform="translate(395.9619,397.45)"
         style="fill:#d59c0f;fill-opacity:1">
        <path
           d="M 0,0 C -31.2,4 -55.8,11 -65.6,22.6 -79.8,18 -90.4,6.4 -95.4,0 c -2,-2.6 -3,-4.2 -3,-4.2 -0.2,-0.4 -0.6,-0.6 -1,-1 5,-6.8 24.6,-26.2 89.4,-34.8 1.2,18.6 2,28.6 10,40"
           style="fill:#d59c0f;fill-opacity:1"
           id="path444"
           inkscape:connector-curvature="0" />
      </g>
      <g
         id="g446"
         transform="translate(312.7619,472.25)"
         style="fill:#d59c0f;fill-opacity:1">
        <path
           d="m 0,0 c -9.4,-3.4 -18.8,-9.4 -21.8,-21.8 l 6,-48 c 6.8,8.2 20.6,22.4 40.2,25 L 16,3 C 12.6,3 6.4,2.4 0,0"
           style="fill:#d59c0f;fill-opacity:1"
           id="path448"
           inkscape:connector-curvature="0" />
      </g>
      <g
         id="g450"
         transform="translate(284.9619,451.45)"
         style="fill:#d59c0f;fill-opacity:1">
        <path
           d="m 0,0 c 1.6,7 4.8,12.4 9,16.4 -7.8,-0.6 -23.8,1 -50.4,15.8 0,0 -1.6,0.8 -2.4,0.8 0,0 -1.6,0 -0.2,-2 0.4,-0.6 1,-1.4 1.6,-2 0,0 0.2,0 0.2,-0.2 L 2,-17 0,-1 Z"
           style="fill:#d59c0f;fill-opacity:1"
           id="path452"
           inkscape:connector-curvature="0" />
      </g>
    </g>
  </g>
  <path
     style="fill:#d59c0f;fill-opacity:1;stroke-width:0.74905378"
     d="m 1152.9602,1905.98 c -10.8579,-8.7919 -28.7332,-21.0264 -40.7666,-27.9022 -47.4988,-27.1405 -105.4734,-44.0668 -159.41804,-46.5436 -6.0767,-0.279 -11.04854,-0.6286 -11.04854,-0.777 0,-0.1483 2.22376,-6.2487 4.94169,-13.5566 42.11251,-113.2299 102.86979,-214.6162 182.25609,-304.1324 6.1075,-6.8867 13.661,-15.2179 16.7858,-18.5137 l 5.6813,-5.9925 0.053,7.116 c 0.029,3.9138 2.7145,99.6415 5.9682,212.7282 3.2537,113.0867 5.8582,205.6458 5.7878,205.687 -0.07,0.041 -4.6785,-3.6097 -10.2402,-8.1132 z"
     id="path504"
     inkscape:connector-curvature="0" />
  <path
     style="fill:#d59c0f;fill-opacity:1;stroke-width:2.118644"
     d="m 1149.2565,2273.5389 c -62.1074,-42.5961 -127.9113,-71.3921 -152.57135,-66.7658 -16.43891,3.0839 -22.18088,14.6178 -17.07551,34.2996 1.58019,6.0917 2.7589,11.0759 2.61937,11.0759 -0.13954,0 -21.2128,-8.8978 -46.82948,-19.773 l -46.57578,-19.7729 -1.89609,-17.833 c -2.24237,-21.0898 1.31028,-105.8977 6.16084,-147.0703 6.55056,-55.6023 25.44376,-145.9015 37.67893,-180.0847 l 3.0333,-8.4746 20.94371,0.2578 c 53.62136,0.6602 122.54326,23.4181 172.26356,56.8813 11.1597,7.5108 23.8837,16.7949 28.2756,20.6313 l 7.9853,6.9754 4.8824,172.6695 c 2.6853,94.9682 4.8122,172.7612 4.7266,172.8734 -0.086,0.112 -10.7153,-7.0383 -23.6214,-15.8899 z"
     id="path506"
     inkscape:connector-curvature="0" />
  <text
     id="_FOSS4G_SotM"
     data-name=" FOSS4G SotM"
     class="cls-2"
     transform="scale(0.96386026,1.0374948)"
     style="font-style:normal;font-variant:normal;font-weight:bold;font-stretch:normal;font-size:252.03999329px;font-family:Ubuntu;-inkscape-font-specification:'Ubuntu, Bold';font-variant-ligatures:normal;font-variant-caps:normal;font-variant-numeric:normal;font-feature-settings:normal;text-align:start;writing-mode:lr-tb;text-anchor:start;fill:#074648;stroke-width:4.25332403"
     x="1406.2177"
     y="1784.2646">
    <tspan
       sodipodi:role="line"
       id="tspan934"
       x="1406.2177"
       y="1784.2646">FOSS4G SotM</tspan>
  </text>
</svg>
