<?xml version="1.0" encoding="UTF-8" standalone="no"?>
<svg
   xmlns:dc="http://purl.org/dc/elements/1.1/"
   xmlns:cc="http://creativecommons.org/ns#"
   xmlns:rdf="http://www.w3.org/1999/02/22-rdf-syntax-ns#"
   xmlns:svg="http://www.w3.org/2000/svg"
   xmlns="http://www.w3.org/2000/svg"
   xmlns:sodipodi="http://sodipodi.sourceforge.net/DTD/sodipodi-0.dtd"
   xmlns:inkscape="http://www.inkscape.org/namespaces/inkscape"
   width="2250"
   height="1270"
   viewBox="0 0 2250 1270"
   version="1.1"
   id="svg371"
   sodipodi:docname="logo_white_background.svg"
   inkscape:version="1.0beta2 (2b71d25, 2019-12-03)">
  <metadata
     id="metadata375">
    <rdf:RDF>
      <cc:Work
         rdf:about="">
        <dc:format>image/svg+xml</dc:format>
        <dc:type
           rdf:resource="http://purl.org/dc/dcmitype/StillImage" />
        <dc:title></dc:title>
      </cc:Work>
    </rdf:RDF>
  </metadata>
  <sodipodi:namedview
     pagecolor="#ffffff"
     bordercolor="#666666"
     borderopacity="1"
     objecttolerance="10"
     gridtolerance="10"
     guidetolerance="10"
     inkscape:pageopacity="0"
     inkscape:pageshadow="2"
     inkscape:window-width="1680"
     inkscape:window-height="1005"
     id="namedview373"
     showgrid="false"
     inkscape:zoom="0.472"
     inkscape:cx="1003.4341"
     inkscape:cy="726.13705"
     inkscape:window-x="0"
     inkscape:window-y="23"
     inkscape:window-maximized="1"
     inkscape:current-layer="svg371"
     inkscape:document-rotation="0"
     inkscape:snap-page="true"
     inkscape:pagecheckerboard="true"
     showguides="false" />
  <defs
     id="defs355">
    <style
       id="style353">
      .cls-1, .cls-2, .cls-3 {
        fill: #074648;
      }

      .cls-1 {
        fill-rule: evenodd;
      }

      .cls-2, .cls-3 {
        font-size: 66.667px;
        font-family: Montserrat;
      }

      .cls-2 {
        font-weight: 800;
      }

      .cls-3 {
        font-weight: 500;
      }
    </style>
    <clipPath
       clipPathUnits="userSpaceOnUse"
       id="clipPath436">
      <path
         d="M 0,841.9 H 595.3 V 0 H 0 Z"
         id="path434"
         inkscape:connector-curvature="0" />
    </clipPath>
  </defs>
  <rect
     style="fill:#ffffff;stroke:none;stroke-width:0.5"
     id="rect39"
     width="100%"
     height="100%"
     x="0"
     y="0" />
  <g
     transform="translate(28.214639,33.593931)"
     id="g114">
    <path
       inkscape:connector-curvature="0"
       id="path360"
       d="m 276.96001,224.11202 5.52,10.65 154.58,954.80008 -86.11,13.25 z"
       class="cls-1" />
    <g
       class="cls-2"
       style="font-style:normal;font-variant:normal;font-weight:bold;font-stretch:normal;font-size:252.04px;font-family:Ubuntu;-inkscape-font-specification:'Ubuntu, Bold';font-variant-ligatures:normal;font-variant-caps:normal;font-variant-numeric:normal;font-feature-settings:normal;text-align:start;writing-mode:lr-tb;text-anchor:start;fill:#074648;stroke-width:4.25332"
       id="OCEANIA_2020_"
       transform="scale(0.96386026,1.0374948)"
       aria-label="OCEANIA 2020">
      <path
         id="path62"
         d="m 555.65706,785.89454 q 0,12.85404 3.02448,23.18768 3.27652,10.33364 9.07344,17.89484 6.04896,7.30916 14.61832,11.3418 8.56936,4.03264 19.65912,4.03264 10.83772,0 19.40708,-4.03264 8.8214,-4.03264 14.61832,-11.3418 6.04896,-7.5612 9.07344,-17.89484 3.27652,-10.33364 3.27652,-23.18768 0,-12.85404 -3.27652,-23.18768 -3.02448,-10.58568 -9.07344,-17.89484 -5.79692,-7.5612 -14.61832,-11.59384 -8.56936,-4.03264 -19.40708,-4.03264 -11.08976,0 -19.65912,4.28468 -8.56936,4.03264 -14.61832,11.59384 -5.79692,7.30916 -9.07344,17.89484 -3.02448,10.33364 -3.02448,22.93564 z m 133.32916,0 q 0,22.43156 -6.80508,39.57028 -6.55304,16.88668 -18.14688,28.48052 -11.59384,11.3418 -27.7244,17.13872 -15.87852,5.79692 -34.27744,5.79692 -17.89484,0 -33.77336,-5.79692 -15.87852,-5.79692 -27.7244,-17.13872 -11.84588,-11.59384 -18.65096,-28.48052 -6.80508,-17.13872 -6.80508,-39.57028 0,-22.43156 7.05712,-39.31824 7.05712,-17.13872 18.903,-28.73256 12.09792,-11.59384 27.7244,-17.39076 15.87852,-5.79692 33.26928,-5.79692 17.89484,0 33.77336,5.79692 15.87852,5.79692 27.7244,17.39076 11.84588,11.59384 18.65096,28.73256 6.80508,16.88668 6.80508,39.31824 z"
         inkscape:connector-curvature="0" />
      <path
         id="path64"
         d="m 801.15977,876.88098 q -42.59476,0 -65.02632,-23.69176 -22.17952,-23.69176 -22.17952,-67.29468 0,-21.67544 6.80508,-38.56212 6.80508,-17.13872 18.65096,-28.73256 11.84588,-11.84588 28.22848,-17.89484 16.3826,-6.04896 35.53764,-6.04896 11.08976,0 20.1632,1.76428 9.07344,1.51224 15.87852,3.7806 6.80507,2.01632 11.34179,4.28468 4.53672,2.26836 6.55304,3.52856 l -11.3418,31.75704 q -8.06527,-4.28468 -18.90299,-7.30916 -10.58568,-3.02448 -24.19584,-3.02448 -9.07344,0 -17.89484,3.02448 -8.56936,3.02448 -15.37444,9.82956 -6.55304,6.55304 -10.58568,17.13872 -4.03264,10.58568 -4.03264,25.70808 0,12.09792 2.5204,22.6836 2.77244,10.33364 8.56936,17.89484 6.04896,7.5612 15.62648,12.09792 9.57752,4.28468 23.18768,4.28468 8.56936,0 15.37444,-1.00816 6.80508,-1.00816 12.09792,-2.26836 5.29284,-1.51224 9.32547,-3.27652 4.03264,-1.76428 7.30916,-3.27652 l 10.83772,31.505 q -8.31732,5.0408 -23.43971,9.07344 -15.1224,4.03264 -35.03356,4.03264 z"
         inkscape:connector-curvature="0" />
      <path
         id="path66"
         d="M 884.94732,873.35242 V 698.6887 H 1002.902 v 33.01724 h -78.63644 v 34.27744 h 69.81508 v 32.26112 h -69.81508 v 42.09068 h 84.43344 v 33.01724 z"
         inkscape:connector-curvature="0" />
      <path
         id="path68"
         d="m 1154.4962,873.35242 q -2.7724,-9.07344 -6.301,-18.65096 -3.2765,-9.57752 -6.553,-19.15504 h -68.0508 q -3.2765,9.57752 -6.8051,19.15504 -3.2765,9.57752 -6.0489,18.65096 h -40.8305 q 9.8295,-28.22848 18.6509,-52.17228 8.8214,-23.9438 17.1388,-45.11516 8.5693,-21.17136 16.6346,-40.07436 8.3173,-19.15504 17.1387,-37.30192 h 37.554 q 8.5693,18.14688 16.8867,37.30192 8.3173,18.903 16.6346,40.07436 8.5694,21.17136 17.3908,45.11516 8.8214,23.9438 18.6509,52.17228 z m -47.1314,-135.09344 q -1.2602,3.7806 -3.7806,10.33364 -2.5204,6.55304 -5.797,15.1224 -3.2765,8.56936 -7.3091,18.903 -3.7806,10.33364 -7.8133,21.67544 h 49.6519 q -4.0326,-11.3418 -7.8132,-21.67544 -3.7806,-10.33364 -7.3092,-18.903 -3.2765,-8.56936 -5.7969,-15.1224 -2.5204,-6.55304 -4.0326,-10.33364 z"
         inkscape:connector-curvature="0" />
      <path
         id="path70"
         d="m 1336.3943,873.35242 q -16.8867,-29.99276 -36.5458,-59.2294 -19.6592,-29.23664 -41.8387,-55.19676 v 114.42616 h -38.8141 V 698.6887 h 32.009 q 8.3174,8.31732 18.399,20.41524 10.0816,12.09792 20.4152,25.96012 10.5857,13.61016 20.9193,28.48052 10.3337,14.61832 19.4071,28.22848 V 698.6887 h 39.0662 v 174.66372 z"
         inkscape:connector-curvature="0" />
      <path
         id="path72"
         d="m 1409.7024,698.6887 h 39.3183 v 174.66372 h -39.3183 z"
         inkscape:connector-curvature="0" />
      <path
         id="path74"
         d="m 1606.3961,873.35242 q -2.7725,-9.07344 -6.301,-18.65096 -3.2765,-9.57752 -6.5531,-19.15504 h -68.0508 q -3.2765,9.57752 -6.805,19.15504 -3.2766,9.57752 -6.049,18.65096 h -40.8305 q 9.8296,-28.22848 18.651,-52.17228 8.8214,-23.9438 17.1387,-45.11516 8.5694,-21.17136 16.6346,-40.07436 8.3174,-19.15504 17.1388,-37.30192 h 37.5539 q 8.5694,18.14688 16.8867,37.30192 8.3173,18.903 16.6346,40.07436 8.5694,21.17136 17.3908,45.11516 8.8214,23.9438 18.651,52.17228 z m -47.1315,-135.09344 q -1.2602,3.7806 -3.7806,10.33364 -2.5204,6.55304 -5.7969,15.1224 -3.2765,8.56936 -7.3092,18.903 -3.7806,10.33364 -7.8132,21.67544 h 49.6519 q -4.0327,-11.3418 -7.8133,-21.67544 -3.7806,-10.33364 -7.3091,-18.903 -3.2766,-8.56936 -5.797,-15.1224 -2.5204,-6.55304 -4.0326,-10.33364 z"
         inkscape:connector-curvature="0" />
      <path
         id="path76"
         d="m 1836.4929,744.55998 q 0,9.57752 -3.7806,18.39892 -3.7806,8.8214 -9.8296,17.13872 -6.049,8.06528 -13.6102,15.62648 -7.5612,7.5612 -14.8703,14.36628 -3.7806,3.52856 -8.3173,8.06528 -4.2847,4.28468 -8.3174,8.8214 -4.0326,4.53672 -7.3091,8.56936 -3.0245,3.7806 -3.7806,6.301 h 75.1079 v 31.505 h -116.4425 q -0.5041,-2.77244 -0.5041,-7.05712 0,-4.28468 0,-6.04896 0,-12.09792 3.7806,-22.17952 4.0327,-10.0816 10.3337,-18.65096 6.301,-8.8214 14.1142,-16.3826 8.0653,-7.5612 15.8785,-15.1224 6.049,-5.79692 11.3418,-10.83772 5.2929,-5.29284 9.3255,-10.0816 4.0327,-5.0408 6.301,-9.82956 2.2684,-5.0408 2.2684,-10.0816 0,-11.08976 -6.301,-15.62648 -6.301,-4.53672 -15.6265,-4.53672 -6.8051,0 -12.854,2.26836 -5.797,2.01632 -10.8378,5.0408 -4.7887,2.77244 -8.3173,5.79692 -3.5285,2.77244 -5.2928,4.53672 l -18.651,-26.21216 q 11.0898,-10.33364 25.7081,-16.88668 14.8704,-6.80508 31.757,-6.80508 15.3745,0 26.4642,3.52856 11.0898,3.52856 18.1469,10.0816 7.3092,6.301 10.5857,15.62648 3.5286,9.07344 3.5286,20.66728 z"
         inkscape:connector-curvature="0" />
      <path
         id="path78"
         d="m 1989.3196,785.6425 q 0,44.107 -16.8866,67.79876 -16.6347,23.43972 -46.1234,23.43972 -29.4886,0 -46.3753,-23.43972 -16.6347,-23.69176 -16.6347,-67.79876 0,-21.92748 4.2847,-38.81416 4.5367,-16.88668 12.8541,-28.48052 8.3173,-11.59384 19.9111,-17.6428 11.5939,-6.04896 25.9601,-6.04896 29.4887,0 46.1234,23.69176 16.8866,23.43972 16.8866,67.29468 z m -38.31,0 q 0,-13.10608 -1.2602,-23.69176 -1.2602,-10.83772 -4.0327,-18.65096 -2.7724,-7.81324 -7.5612,-12.09792 -4.7887,-4.28468 -11.8459,-4.28468 -7.0571,0 -11.8458,4.28468 -4.5368,4.28468 -7.5612,12.09792 -2.7725,7.81324 -4.0327,18.65096 -1.2602,10.58568 -1.2602,23.69176 0,13.10608 1.2602,23.9438 1.2602,10.83772 4.0327,18.65096 3.0244,7.81324 7.5612,12.09792 4.7887,4.28468 11.8458,4.28468 7.0572,0 11.8459,-4.28468 4.7888,-4.28468 7.5612,-12.09792 2.7725,-7.81324 4.0327,-18.65096 1.2602,-10.83772 1.2602,-23.9438 z"
         inkscape:connector-curvature="0" />
      <path
         id="path80"
         d="m 2122.9914,744.55998 q 0,9.57752 -3.7806,18.39892 -3.7806,8.8214 -9.8296,17.13872 -6.0489,8.06528 -13.6101,15.62648 -7.5612,7.5612 -14.8704,14.36628 -3.7806,3.52856 -8.3173,8.06528 -4.2847,4.28468 -8.3173,8.8214 -4.0327,4.53672 -7.3092,8.56936 -3.0245,3.7806 -3.7806,6.301 h 75.1079 v 31.505 h -116.4424 q -0.5041,-2.77244 -0.5041,-7.05712 0,-4.28468 0,-6.04896 0,-12.09792 3.7806,-22.17952 4.0326,-10.0816 10.3336,-18.65096 6.301,-8.8214 14.1143,-16.3826 8.0652,-7.5612 15.8785,-15.1224 6.0489,-5.79692 11.3418,-10.83772 5.2928,-5.29284 9.3255,-10.0816 4.0326,-5.0408 6.301,-9.82956 2.2683,-5.0408 2.2683,-10.0816 0,-11.08976 -6.301,-15.62648 -6.301,-4.53672 -15.6265,-4.53672 -6.805,0 -12.854,2.26836 -5.7969,2.01632 -10.8377,5.0408 -4.7888,2.77244 -8.3173,5.79692 -3.5286,2.77244 -5.2929,4.53672 l -18.6509,-26.21216 q 11.0897,-10.33364 25.708,-16.88668 14.8704,-6.80508 31.7571,-6.80508 15.3744,0 26.4642,3.52856 11.0897,3.52856 18.1469,10.0816 7.3091,6.301 10.5856,15.62648 3.5286,9.07344 3.5286,20.66728 z"
         inkscape:connector-curvature="0" />
      <path
         id="path82"
         d="m 2275.8182,785.6425 q 0,44.107 -16.8867,67.79876 -16.6346,23.43972 -46.1233,23.43972 -29.4887,0 -46.3754,-23.43972 -16.6346,-23.69176 -16.6346,-67.79876 0,-21.92748 4.2847,-38.81416 4.5367,-16.88668 12.854,-28.48052 8.3173,-11.59384 19.9112,-17.6428 11.5938,-6.04896 25.9601,-6.04896 29.4887,0 46.1233,23.69176 16.8867,23.43972 16.8867,67.29468 z m -38.3101,0 q 0,-13.10608 -1.2602,-23.69176 -1.2602,-10.83772 -4.0326,-18.65096 -2.7725,-7.81324 -7.5612,-12.09792 -4.7888,-4.28468 -11.8459,-4.28468 -7.0571,0 -11.8459,4.28468 -4.5367,4.28468 -7.5612,12.09792 -2.7724,7.81324 -4.0326,18.65096 -1.2602,10.58568 -1.2602,23.69176 0,13.10608 1.2602,23.9438 1.2602,10.83772 4.0326,18.65096 3.0245,7.81324 7.5612,12.09792 4.7888,4.28468 11.8459,4.28468 7.0571,0 11.8459,-4.28468 4.7887,-4.28468 7.5612,-12.09792 2.7724,-7.81324 4.0326,-18.65096 1.2602,-10.83772 1.2602,-23.9438 z"
         inkscape:connector-curvature="0" />
    </g>
    <g
       class="cls-3"
       style="font-style:normal;font-variant:normal;font-weight:bold;font-stretch:normal;font-size:192px;font-family:Ubuntu;-inkscape-font-specification:'Ubuntu, Bold';font-variant-ligatures:normal;font-variant-caps:normal;font-variant-numeric:normal;font-feature-settings:normal;text-align:start;writing-mode:lr-tb;text-anchor:start;fill:#074648;stroke-width:500"
       id="20 November"
       transform="scale(0.79120021,1.2639026)"
       aria-label="20 November">
      <path
         id="path85"
         style="font-style:normal;font-variant:normal;font-weight:bold;font-stretch:normal;font-size:192px;font-family:Ubuntu;-inkscape-font-specification:'Ubuntu, Bold';font-variant-ligatures:normal;font-variant-caps:normal;font-variant-numeric:normal;font-feature-settings:normal;text-align:start;writing-mode:lr-tb;text-anchor:start;stroke-width:500"
         d="m 715.9939,818.03247 q 0,7.296 -2.88,14.016 -2.88,6.72 -7.488,13.056 -4.608,6.144 -10.368,11.904 -5.76,5.76 -11.328,10.944 -2.88,2.688 -6.336,6.144 -3.264,3.264 -6.336,6.72 -3.072,3.456 -5.568,6.528 -2.304,2.88 -2.88,4.8 h 57.216 v 24 h -88.704 q -0.384,-2.112 -0.384,-5.376 0,-3.264 0,-4.608 0,-9.216 2.88,-16.896 3.072,-7.68 7.872,-14.208 4.8,-6.72 10.752,-12.48 6.144,-5.76 12.096,-11.52 4.608,-4.416 8.64,-8.256 4.032,-4.032 7.104,-7.68 3.072,-3.84 4.8,-7.488 1.728,-3.84 1.728,-7.68 0,-8.448 -4.8,-11.904 -4.8,-3.456 -11.904,-3.456 -5.184,0 -9.792,1.728 -4.416,1.536 -8.256,3.84 -3.648,2.112 -6.336,4.416 -2.688,2.112 -4.032,3.456 l -14.208,-19.968 q 8.448,-7.872 19.584,-12.864 11.328,-5.184 24.192,-5.184 11.712,0 20.16,2.688 8.448,2.688 13.824,7.68 5.568,4.8 8.064,11.904 2.688,6.912 2.688,15.744 z"
         inkscape:connector-curvature="0" />
      <path
         id="path87"
         style="font-style:normal;font-variant:normal;font-weight:bold;font-stretch:normal;font-size:192px;font-family:Ubuntu;-inkscape-font-specification:'Ubuntu, Bold';font-variant-ligatures:normal;font-variant-caps:normal;font-variant-numeric:normal;font-feature-settings:normal;text-align:start;writing-mode:lr-tb;text-anchor:start;stroke-width:500"
         d="m 832.4149,849.32847 q 0,33.6 -12.864,51.648 -12.672,17.856 -35.136,17.856 -22.464,0 -35.328,-17.856 -12.672,-18.048 -12.672,-51.648 0,-16.704 3.264,-29.568 3.456,-12.864 9.792,-21.696 6.336,-8.832 15.168,-13.44 8.832,-4.608 19.776,-4.608 22.464,0 35.136,18.048 12.864,17.856 12.864,51.264 z m -29.184,0 q 0,-9.984 -0.96,-18.048 -0.96,-8.256 -3.072,-14.208 -2.112,-5.952 -5.76,-9.216 -3.648,-3.264 -9.024,-3.264 -5.376,0 -9.024,3.264 -3.456,3.264 -5.76,9.216 -2.112,5.952 -3.072,14.208 -0.96,8.064 -0.96,18.048 0,9.984 0.96,18.24 0.96,8.256 3.072,14.208 2.304,5.952 5.76,9.216 3.648,3.264 9.024,3.264 5.376,0 9.024,-3.264 3.648,-3.264 5.76,-9.216 2.112,-5.952 3.072,-14.208 0.96,-8.256 0.96,-18.24 z"
         inkscape:connector-curvature="0" />
      <path
         id="path89"
         style="font-style:normal;font-variant:normal;font-weight:bold;font-stretch:normal;font-size:192px;font-family:Ubuntu;-inkscape-font-specification:'Ubuntu, Bold';font-variant-ligatures:normal;font-variant-caps:normal;font-variant-numeric:normal;font-feature-settings:normal;text-align:start;writing-mode:lr-tb;text-anchor:start;stroke-width:500"
         d="m 989.7769,916.14447 q -12.864,-22.848 -27.84,-45.12 -14.976,-22.272 -31.872,-42.048 v 87.168 h -29.568 v -133.056 h 24.384 q 6.336,6.336 14.016,15.552 7.68,9.216 15.552,19.776 8.064,10.368 15.936,21.696 7.872,11.136 14.784,21.504 v -78.528 h 29.76 v 133.056 z"
         inkscape:connector-curvature="0" />
      <path
         id="path91"
         style="font-style:normal;font-variant:normal;font-weight:bold;font-stretch:normal;font-size:192px;font-family:Ubuntu;-inkscape-font-specification:'Ubuntu, Bold';font-variant-ligatures:normal;font-variant-caps:normal;font-variant-numeric:normal;font-feature-settings:normal;text-align:start;writing-mode:lr-tb;text-anchor:start;stroke-width:500"
         d="m 1138.1659,865.45647 q 0,11.904 -3.456,21.888 -3.456,9.792 -9.984,16.896 -6.528,6.912 -15.744,10.752 -9.024,3.84 -20.352,3.84 -11.136,0 -20.352,-3.84 -9.024,-3.84 -15.552,-10.752 -6.528,-7.104 -10.176,-16.896 -3.648,-9.984 -3.648,-21.888 0,-11.904 3.648,-21.696 3.84,-9.792 10.368,-16.704 6.72,-6.912 15.744,-10.752 9.216,-3.84 19.968,-3.84 10.944,0 19.968,3.84 9.216,3.84 15.744,10.752 6.528,6.912 10.176,16.704 3.648,9.792 3.648,21.696 z m -29.184,0 q 0,-13.248 -5.376,-20.736 -5.184,-7.68 -14.976,-7.68 -9.792,0 -15.168,7.68 -5.376,7.488 -5.376,20.736 0,13.248 5.376,21.12 5.376,7.68 15.168,7.68 9.792,0 14.976,-7.68 5.376,-7.872 5.376,-21.12 z"
         inkscape:connector-curvature="0" />
      <path
         id="path93"
         style="font-style:normal;font-variant:normal;font-weight:bold;font-stretch:normal;font-size:192px;font-family:Ubuntu;-inkscape-font-specification:'Ubuntu, Bold';font-variant-ligatures:normal;font-variant-caps:normal;font-variant-numeric:normal;font-feature-settings:normal;text-align:start;writing-mode:lr-tb;text-anchor:start;stroke-width:500"
         d="m 1185.1579,916.14447 q -9.792,-19.2 -19.968,-44.928 -9.984,-25.728 -19.008,-56.064 h 30.336 q 1.92,7.488 4.416,16.32 2.688,8.64 5.376,17.664 2.88,8.832 5.568,17.28 2.88,8.448 5.568,15.36 2.496,-6.912 5.376,-15.36 2.88,-8.448 5.568,-17.28 2.88,-9.024 5.376,-17.664 2.688,-8.832 4.608,-16.32 h 29.568 q -9.024,30.336 -19.2,56.064 -9.984,25.728 -19.776,44.928 z"
         inkscape:connector-curvature="0" />
      <path
         id="path95"
         style="font-style:normal;font-variant:normal;font-weight:bold;font-stretch:normal;font-size:192px;font-family:Ubuntu;-inkscape-font-specification:'Ubuntu, Bold';font-variant-ligatures:normal;font-variant-caps:normal;font-variant-numeric:normal;font-feature-settings:normal;text-align:start;writing-mode:lr-tb;text-anchor:start;stroke-width:500"
         d="m 1256.0269,866.41647 q 0,-13.44 4.032,-23.424 4.224,-10.176 10.944,-16.896 6.72,-6.72 15.36,-10.176 8.832,-3.456 18.048,-3.456 21.504,0 33.984,13.248 12.48,13.056 12.48,38.592 0,2.496 -0.192,5.568 -0.192,2.88 -0.384,5.184 h -64.896 q 0.96,8.832 8.256,14.016 7.296,5.184 19.584,5.184 7.872,0 15.36,-1.344 7.68,-1.536 12.48,-3.648 l 3.84,23.232 q -2.304,1.152 -6.144,2.304 -3.84,1.152 -8.64,1.92 -4.608,0.96 -9.984,1.536 -5.376,0.576 -10.752,0.576 -13.632,0 -23.808,-4.032 -9.984,-4.032 -16.704,-10.944 -6.528,-7.104 -9.792,-16.704 -3.072,-9.6 -3.072,-20.736 z m 67.2,-10.944 q -0.192,-3.648 -1.344,-7.104 -0.96,-3.456 -3.264,-6.144 -2.112,-2.688 -5.568,-4.416 -3.264,-1.728 -8.256,-1.728 -4.8,0 -8.256,1.728 -3.456,1.536 -5.76,4.224 -2.304,2.688 -3.648,6.336 -1.152,3.456 -1.728,7.104 z"
         inkscape:connector-curvature="0" />
      <path
         id="path97"
         style="font-style:normal;font-variant:normal;font-weight:bold;font-stretch:normal;font-size:192px;font-family:Ubuntu;-inkscape-font-specification:'Ubuntu, Bold';font-variant-ligatures:normal;font-variant-caps:normal;font-variant-numeric:normal;font-feature-settings:normal;text-align:start;writing-mode:lr-tb;text-anchor:start;stroke-width:500"
         d="m 1428.4399,862.57647 q 0,-13.824 -3.648,-19.584 -3.456,-5.76 -12.096,-5.76 -2.688,0 -5.568,0.384 -2.88,0.192 -5.568,0.576 v 77.952 h -28.608 v -97.536 q 3.648,-0.96 8.448,-1.92 4.992,-1.152 10.368,-1.92 5.568,-0.96 11.328,-1.344 5.76,-0.576 11.328,-0.576 10.944,0 17.664,2.88 6.912,2.688 11.328,6.528 6.144,-4.416 14.016,-6.912 8.064,-2.496 14.784,-2.496 12.096,0 19.776,3.456 7.872,3.264 12.48,9.408 4.608,6.144 6.336,14.592 1.728,8.448 1.728,18.816 v 57.024 h -28.608 v -53.568 q 0,-13.824 -3.648,-19.584 -3.456,-5.76 -12.096,-5.76 -2.304,0 -6.528,1.152 -4.032,1.152 -6.72,2.88 1.344,4.416 1.728,9.408 0.384,4.8 0.384,10.368 v 55.104 h -28.608 z"
         inkscape:connector-curvature="0" />
      <path
         id="path99"
         style="font-style:normal;font-variant:normal;font-weight:bold;font-stretch:normal;font-size:192px;font-family:Ubuntu;-inkscape-font-specification:'Ubuntu, Bold';font-variant-ligatures:normal;font-variant-caps:normal;font-variant-numeric:normal;font-feature-settings:normal;text-align:start;writing-mode:lr-tb;text-anchor:start;stroke-width:500"
         d="m 1603.0309,864.88047 q 0,-27.648 -20.352,-27.648 -4.416,0 -8.832,1.152 -4.224,1.152 -6.912,2.88 v 52.032 q 2.112,0.384 5.376,0.768 3.264,0.192 7.104,0.192 11.712,0 17.664,-8.064 5.952,-8.064 5.952,-21.312 z m 29.184,0.768 q 0,12.096 -3.648,21.888 -3.456,9.792 -10.176,16.704 -6.72,6.912 -16.512,10.752 -9.792,3.648 -22.272,3.648 -5.184,0 -10.944,-0.576 -5.568,-0.384 -11.136,-1.152 -5.376,-0.768 -10.368,-1.728 -4.992,-1.152 -8.832,-2.304 v -141.12 l 28.608,-4.608 v 50.304 q 4.8,-2.112 9.984,-3.264 5.184,-1.152 11.136,-1.152 10.752,0 19.008,3.84 8.256,3.648 13.824,10.56 5.568,6.912 8.448,16.704 2.88,9.6 2.88,21.504 z"
         inkscape:connector-curvature="0" />
      <path
         id="path101"
         style="font-style:normal;font-variant:normal;font-weight:bold;font-stretch:normal;font-size:192px;font-family:Ubuntu;-inkscape-font-specification:'Ubuntu, Bold';font-variant-ligatures:normal;font-variant-caps:normal;font-variant-numeric:normal;font-feature-settings:normal;text-align:start;writing-mode:lr-tb;text-anchor:start;stroke-width:500"
         d="m 1649.4019,866.41647 q 0,-13.44 4.032,-23.424 4.224,-10.176 10.944,-16.896 6.72,-6.72 15.36,-10.176 8.832,-3.456 18.048,-3.456 21.504,0 33.984,13.248 12.48,13.056 12.48,38.592 0,2.496 -0.192,5.568 -0.192,2.88 -0.384,5.184 h -64.896 q 0.96,8.832 8.256,14.016 7.296,5.184 19.584,5.184 7.872,0 15.36,-1.344 7.68,-1.536 12.48,-3.648 l 3.84,23.232 q -2.304,1.152 -6.144,2.304 -3.84,1.152 -8.64,1.92 -4.608,0.96 -9.984,1.536 -5.376,0.576 -10.752,0.576 -13.632,0 -23.808,-4.032 -9.984,-4.032 -16.704,-10.944 -6.528,-7.104 -9.792,-16.704 -3.072,-9.6 -3.072,-20.736 z m 67.2,-10.944 q -0.192,-3.648 -1.344,-7.104 -0.96,-3.456 -3.264,-6.144 -2.112,-2.688 -5.568,-4.416 -3.264,-1.728 -8.256,-1.728 -4.8,0 -8.256,1.728 -3.456,1.536 -5.76,4.224 -2.304,2.688 -3.648,6.336 -1.152,3.456 -1.728,7.104 z"
         inkscape:connector-curvature="0" />
      <path
         id="path103"
         style="font-style:normal;font-variant:normal;font-weight:bold;font-stretch:normal;font-size:192px;font-family:Ubuntu;-inkscape-font-specification:'Ubuntu, Bold';font-variant-ligatures:normal;font-variant-caps:normal;font-variant-numeric:normal;font-feature-settings:normal;text-align:start;writing-mode:lr-tb;text-anchor:start;stroke-width:500"
         d="m 1827.1909,840.49647 q -3.84,-0.96 -9.024,-1.92 -5.184,-1.152 -11.136,-1.152 -2.688,0 -6.528,0.576 -3.648,0.384 -5.568,0.96 v 77.184 h -28.608 v -95.616 q 7.68,-2.688 18.048,-4.992 10.56,-2.496 23.424,-2.496 2.304,0 5.568,0.384 3.264,0.192 6.528,0.768 3.264,0.384 6.528,1.152 3.264,0.576 5.568,1.536 z"
         inkscape:connector-curvature="0" />
    </g>
    <path
       style="fill:#074648;fill-rule:evenodd;stroke-width:1.10359"
       inkscape:connector-curvature="0"
       id="path368"
       d="m 2068.7046,1102.2821 c -62.9171,25.47 -116.5903,25.47 -179.5197,0 -41.0191,-16.62 -76.0584,-16.62 -117.0776,0 -62.3325,25.22 -113.1559,25.22 -175.4884,0 -41.482,-16.81 -69.506,-16.81 -111.0247,0 l -17.1115,-12.33 c 50.4458,-20.41 92.829,-21.24 145.2722,0 49.4349,20.02 85.9234,22.39 141.2408,0 52.4432,-21.24 101.2082,-20.28 151.3252,0 51.4445,20.84 91.8059,21.65 145.2599,0 52.4797,-21.24 86.7761,-21.24 139.2192,0 l -17.1238,12.33 c -42.1641,-17.09 -62.7832,-17.09 -104.9716,0 z m 0,-41.81 c -62.9171,25.47 -116.5903,25.47 -179.5197,0 -41.0191,-16.62 -76.0584,-16.62 -117.0776,0 -62.3325,25.23 -113.1559,25.23 -175.4884,0 -41.482,-16.81 -69.506,-16.81 -111.0247,0 l -17.1115,-12.33 c 50.4458,-20.42 92.829,-21.24 145.2722,0 49.4349,20.02 85.9234,22.4 141.2408,0 52.4432,-21.24 101.2082,-20.28 151.3252,0 51.4445,20.84 91.8059,21.65 145.2599,0 52.4797,-21.24 86.7761,-21.24 139.2192,0 l -17.1238,12.33 c -42.1641,-17.09 -62.7832,-17.09 -104.9716,0 z m -454.9497,71.29 c 49.4349,20.03 85.9234,22.39 141.2408,0 52.4432,-21.24 101.2082,-20.29 151.3252,0 51.4445,20.84 91.8059,21.66 145.2599,0 52.4797,-21.24 86.7761,-21.24 139.2192,0 l -17.1238,12.32 c -42.1641,-17.07 -62.7832,-17.07 -104.9716,0 -62.9171,25.48 -116.5903,25.49 -179.5197,0 -41.0191,-16.61 -76.0584,-16.61 -117.0776,0 -62.3325,25.24 -113.1559,25.24 -175.4884,0 -41.482,-16.8 -69.506,-16.8 -111.0247,0 l -17.1115,-12.32 c 50.4458,-20.42 92.829,-21.24 145.2722,0 z"
       class="cls-1" />
    <g
       style="fill:#d59c0f;fill-opacity:1"
       id="g430"
       transform="matrix(2.7680057,0,0,-2.7680057,-522.35059,1340.9604)">
      <g
         style="fill:#d59c0f;fill-opacity:1"
         clip-path="url(#clipPath436)"
         id="g432">
        <g
           style="fill:#d59c0f;fill-opacity:1"
           transform="translate(288.1619,424.65)"
           id="g438">
          <path
             inkscape:connector-curvature="0"
             id="path440"
             style="fill:#d59c0f;fill-opacity:1;fill-rule:nonzero;stroke:none"
             d="m 0,0 -49.8,51.4 c 0,0 -5,4.8 -3.4,7.6 L -88,10.2 c 0,0 -12,-13.2 55.6,-65.8 l 35,34.2 z" />
        </g>
        <g
           style="fill:#d59c0f;fill-opacity:1"
           transform="translate(395.9619,397.45)"
           id="g442">
          <path
             inkscape:connector-curvature="0"
             id="path444"
             style="fill:#d59c0f;fill-opacity:1"
             d="M 0,0 C -31.2,4 -55.8,11 -65.6,22.6 -79.8,18 -90.4,6.4 -95.4,0 c -2,-2.6 -3,-4.2 -3,-4.2 -0.2,-0.4 -0.6,-0.6 -1,-1 5,-6.8 24.6,-26.2 89.4,-34.8 1.2,18.6 2,28.6 10,40" />
        </g>
        <g
           style="fill:#d59c0f;fill-opacity:1"
           transform="translate(312.7619,472.25)"
           id="g446">
          <path
             inkscape:connector-curvature="0"
             id="path448"
             style="fill:#d59c0f;fill-opacity:1"
             d="m 0,0 c -9.4,-3.4 -18.8,-9.4 -21.8,-21.8 l 6,-48 c 6.8,8.2 20.6,22.4 40.2,25 L 16,3 C 12.6,3 6.4,2.4 0,0" />
        </g>
        <g
           style="fill:#d59c0f;fill-opacity:1"
           transform="translate(284.9619,451.45)"
           id="g450">
          <path
             inkscape:connector-curvature="0"
             id="path452"
             style="fill:#d59c0f;fill-opacity:1"
             d="m 0,0 c 1.6,7 4.8,12.4 9,16.4 -7.8,-0.6 -23.8,1 -50.4,15.8 0,0 -1.6,0.8 -2.4,0.8 0,0 -1.6,0 -0.2,-2 0.4,-0.6 1,-1.4 1.6,-2 0,0 0.2,0 0.2,-0.2 L 2,-17 0,-1 Z" />
        </g>
      </g>
    </g>
    <path
       inkscape:connector-curvature="0"
       id="path504"
       d="m 266.72021,724.20202 c -10.8579,-8.7919 -28.7332,-21.0264 -40.7666,-27.9022 -47.4988,-27.1405 -105.4734,-44.0668 -159.418043,-46.5436 -6.0767,-0.279 -11.04854,-0.6286 -11.04854,-0.777 0,-0.1483 2.22376,-6.2487 4.94169,-13.5566 42.112513,-113.2299 102.869793,-214.6162 182.256093,-304.1324 6.1075,-6.8867 13.661,-15.2179 16.7858,-18.5137 l 5.6813,-5.9925 0.053,7.116 c 0.029,3.9138 2.7145,99.6415 5.9682,212.7282 3.2537,113.0867 5.8582,205.6458 5.7878,205.687 -0.07,0.041 -4.6785,-3.6097 -10.2402,-8.1132 z"
       style="fill:#d59c0f;fill-opacity:1;stroke-width:0.749054" />
    <path
       inkscape:connector-curvature="0"
       id="path506"
       d="m 263.01651,1091.761 c -62.1074,-42.5961 -127.9113,-71.3921 -152.57135,-66.7658 -16.438913,3.0839 -22.180883,14.6178 -17.075513,34.2996 1.58019,6.0917 2.7589,11.0759 2.61937,11.0759 -0.13954,0 -21.2128,-8.8978 -46.82948,-19.773 L 2.5837568,1030.8248 0.68766681,1012.9918 C -1.5547032,991.90192 1.9979468,907.09402 6.8485068,865.92142 13.399067,810.31912 32.292267,720.01992 44.527437,685.83672 l 3.0333,-8.4746 20.94371,0.2578 c 53.621363,0.6602 122.543263,23.4181 172.263563,56.8813 11.1597,7.5108 23.8837,16.7949 28.2756,20.6313 l 7.9853,6.9754 4.8824,172.6695 c 2.6853,94.96828 4.8122,172.76128 4.7266,172.87348 -0.086,0.112 -10.7153,-7.0383 -23.6214,-15.8899 z"
       style="fill:#d59c0f;fill-opacity:1;stroke-width:2.11864" />
    <g
       class="cls-2"
       style="font-style:normal;font-variant:normal;font-weight:bold;font-stretch:normal;font-size:252.04px;font-family:Ubuntu;-inkscape-font-specification:'Ubuntu, Bold';font-variant-ligatures:normal;font-variant-caps:normal;font-variant-numeric:normal;font-feature-settings:normal;text-align:start;writing-mode:lr-tb;text-anchor:start;fill:#074648;stroke-width:4.25332"
       id="_FOSS4G_SotM"
       transform="scale(0.96386026,1.0374948)"
       aria-label="FOSS4G SotM">
      <path
         id="path41"
         d="M 515.07864,645.1958 V 470.53209 h 116.94655 v 33.01723 h -77.62832 v 36.5458 h 69.05896 v 33.01724 h -69.05896 v 72.08344 z"
         inkscape:connector-curvature="0" />
      <path
         id="path43"
         d="m 690.85291,557.73792 q 0,12.85404 3.02448,23.18768 3.27652,10.33364 9.07344,17.89484 6.04896,7.30916 14.61832,11.3418 8.56936,4.03264 19.65912,4.03264 10.83772,0 19.40708,-4.03264 8.8214,-4.03264 14.61832,-11.3418 6.04896,-7.5612 9.07344,-17.89484 3.27652,-10.33364 3.27652,-23.18768 0,-12.85404 -3.27652,-23.18768 -3.02448,-10.58568 -9.07344,-17.89484 -5.79692,-7.5612 -14.61832,-11.59384 -8.56936,-4.03264 -19.40708,-4.03264 -11.08976,0 -19.65912,4.28468 -8.56936,4.03264 -14.61832,11.59384 -5.79692,7.30916 -9.07344,17.89484 -3.02448,10.33364 -3.02448,22.93564 z m 133.32916,0 q 0,22.43156 -6.80508,39.57028 -6.55304,16.88668 -18.14688,28.48052 -11.59384,11.3418 -27.7244,17.13872 -15.87852,5.79692 -34.27744,5.79692 -17.89484,0 -33.77336,-5.79692 -15.87852,-5.79692 -27.7244,-17.13872 -11.84588,-11.59384 -18.65096,-28.48052 -6.80508,-17.13872 -6.80508,-39.57028 0,-22.43156 7.05712,-39.31824 7.05712,-17.13872 18.903,-28.73256 12.09792,-11.59383 27.7244,-17.39075 15.87852,-5.79692 33.26928,-5.79692 17.89484,0 33.77336,5.79692 15.87852,5.79692 27.7244,17.39075 11.84588,11.59384 18.65096,28.73256 6.80508,16.88668 6.80508,39.31824 z"
         inkscape:connector-curvature="0" />
      <path
         id="path45"
         d="m 904.34652,615.20304 q 8.31732,0 13.61016,-1.2602 5.54488,-1.51224 8.8214,-3.7806 3.27652,-2.5204 4.53672,-5.79692 1.2602,-3.27652 1.2602,-7.30916 0,-8.56936 -8.06528,-14.11424 -8.06528,-5.79692 -27.7244,-12.34996 -8.56936,-3.02448 -17.13872,-6.80508 -8.56936,-4.03264 -15.37444,-9.82956 -6.80508,-6.04896 -11.08976,-14.36628 -4.28468,-8.56936 -4.28468,-20.66728 0,-12.09792 4.53672,-21.67544 4.53672,-9.82956 12.85404,-16.63463 8.31732,-6.80508 20.1632,-10.33364 11.84588,-3.7806 26.71624,-3.7806 17.6428,0 30.49684,3.7806 12.85404,3.7806 21.17136,8.31732 l -11.3418,31.00091 q -7.30916,-3.7806 -16.3826,-6.55304 -8.8214,-3.02448 -21.4234,-3.02448 -14.11424,0 -20.41524,4.03264 -6.04896,3.7806 -6.04896,11.84588 0,4.78876 2.26836,8.06528 2.26836,3.27652 6.301,6.04896 4.28468,2.5204 9.57752,4.78876 5.54488,2.01632 12.09792,4.28468 13.61016,5.0408 23.69176,10.0816 10.0816,4.78876 16.63464,11.3418 6.80508,6.55304 10.0816,15.37444 3.27652,8.8214 3.27652,21.4234 0,24.44788 -17.13872,38.05804 -17.13872,13.35812 -51.6682,13.35812 -11.59384,0 -20.91932,-1.51224 -9.32548,-1.2602 -16.63464,-3.27652 -7.05712,-2.01632 -12.34996,-4.28468 -5.0408,-2.26836 -8.56936,-4.28468 L 856.963,604.11328 q 7.81324,4.28468 19.15504,7.81324 11.59384,3.27652 28.22848,3.27652 z"
         inkscape:connector-curvature="0" />
      <path
         id="path47"
         d="m 1051.0417,615.20304 q 8.3173,0 13.6102,-1.2602 5.5448,-1.51224 8.8214,-3.7806 3.2765,-2.5204 4.5367,-5.79692 1.2602,-3.27652 1.2602,-7.30916 0,-8.56936 -8.0653,-14.11424 -8.0653,-5.79692 -27.7244,-12.34996 -8.5694,-3.02448 -17.1387,-6.80508 -8.5694,-4.03264 -15.3745,-9.82956 -6.805,-6.04896 -11.08971,-14.36628 -4.28468,-8.56936 -4.28468,-20.66728 0,-12.09792 4.53669,-21.67544 4.5367,-9.82956 12.8541,-16.63463 8.3173,-6.80508 20.1632,-10.33364 11.8458,-3.7806 26.7162,-3.7806 17.6428,0 30.4968,3.7806 12.8541,3.7806 21.1714,8.31732 l -11.3418,31.00091 q -7.3092,-3.7806 -16.3826,-6.55304 -8.8214,-3.02448 -21.4234,-3.02448 -14.1142,0 -20.4152,4.03264 -6.049,3.7806 -6.049,11.84588 0,4.78876 2.2684,8.06528 2.2683,3.27652 6.301,6.04896 4.2846,2.5204 9.5775,4.78876 5.5449,2.01632 12.0979,4.28468 13.6102,5.0408 23.6918,10.0816 10.0816,4.78876 16.6346,11.3418 6.8051,6.55304 10.0816,15.37444 3.2765,8.8214 3.2765,21.4234 0,24.44788 -17.1387,38.05804 -17.1387,13.35812 -51.6682,13.35812 -11.5938,0 -20.9193,-1.51224 -9.3255,-1.2602 -16.6347,-3.27652 -7.0571,-2.01632 -12.3499,-4.28468 -5.04081,-2.26836 -8.56937,-4.28468 l 11.08977,-31.25296 q 7.8132,4.28468 19.155,7.81324 11.5939,3.27652 28.2285,3.27652 z"
         inkscape:connector-curvature="0" />
      <path
         id="path49"
         d="m 1210.3388,516.40336 q -9.8295,12.85404 -20.9193,27.97644 -11.0897,15.1224 -18.6509,31.00092 h 39.5702 z m 36.7979,-45.87127 v 104.84863 h 18.6509 v 30.74888 h -18.6509 v 39.0662 h -36.7979 v -39.0662 h -75.3599 v -27.47236 q 5.5449,-11.08976 13.8622,-24.95196 8.3173,-14.11424 18.3989,-28.73256 10.3336,-14.87036 21.6754,-28.9846 11.3418,-14.11423 22.6836,-25.45603 z"
         inkscape:connector-curvature="0" />
      <path
         id="path51"
         d="m 1378.5401,500.77688 q -27.4723,0 -39.8223,15.37444 -12.0979,15.1224 -12.0979,41.5866 0,12.85404 3.0245,23.43972 3.0244,10.33364 9.0734,17.89484 6.049,7.5612 15.1224,11.84588 9.0734,4.03264 21.1714,4.03264 6.553,0 11.0897,-0.25204 4.7888,-0.25204 8.3173,-1.00816 v -60.74164 h 39.3183 v 86.44972 q -7.0571,2.77244 -22.6836,5.79692 -15.6265,3.27652 -38.5621,3.27652 -19.6592,0 -35.7897,-6.04896 -15.8785,-6.04896 -27.2203,-17.6428 -11.3418,-11.59384 -17.6428,-28.48052 -6.049,-16.88668 -6.049,-38.56212 0,-21.92748 6.8051,-38.81416 6.8051,-16.88668 18.6509,-28.48052 11.8459,-11.84587 27.7244,-17.89483 16.1306,-6.04896 34.2775,-6.04896 12.3499,0 22.1795,1.76428 10.0816,1.51224 17.1387,3.7806 7.3092,2.01632 11.8459,4.28468 4.7888,2.26836 6.8051,3.52856 l -11.3418,31.50499 q -8.0653,-4.28468 -18.651,-7.30916 -10.3336,-3.27652 -22.6836,-3.27652 z"
         inkscape:connector-curvature="0" />
      <path
         id="path53"
         d="m 1578.2582,615.20304 q 8.3173,0 13.6102,-1.2602 5.5448,-1.51224 8.8214,-3.7806 3.2765,-2.5204 4.5367,-5.79692 1.2602,-3.27652 1.2602,-7.30916 0,-8.56936 -8.0653,-14.11424 -8.0653,-5.79692 -27.7244,-12.34996 -8.5694,-3.02448 -17.1387,-6.80508 -8.5694,-4.03264 -15.3745,-9.82956 -6.805,-6.04896 -11.0897,-14.36628 -4.2847,-8.56936 -4.2847,-20.66728 0,-12.09792 4.5367,-21.67544 4.5367,-9.82956 12.8541,-16.63463 8.3173,-6.80508 20.1632,-10.33364 11.8458,-3.7806 26.7162,-3.7806 17.6428,0 30.4968,3.7806 12.8541,3.7806 21.1714,8.31732 l -11.3418,31.00091 q -7.3092,-3.7806 -16.3826,-6.55304 -8.8214,-3.02448 -21.4234,-3.02448 -14.1142,0 -20.4152,4.03264 -6.049,3.7806 -6.049,11.84588 0,4.78876 2.2684,8.06528 2.2683,3.27652 6.301,6.04896 4.2846,2.5204 9.5775,4.78876 5.5449,2.01632 12.0979,4.28468 13.6102,5.0408 23.6918,10.0816 10.0816,4.78876 16.6346,11.3418 6.8051,6.55304 10.0816,15.37444 3.2765,8.8214 3.2765,21.4234 0,24.44788 -17.1387,38.05804 -17.1387,13.35812 -51.6682,13.35812 -11.5938,0 -20.9193,-1.51224 -9.3255,-1.2602 -16.6347,-3.27652 -7.0571,-2.01632 -12.3499,-4.28468 -5.0408,-2.26836 -8.5694,-4.28468 l 11.0898,-31.25296 q 7.8132,4.28468 19.155,7.81324 11.5939,3.27652 28.2285,3.27652 z"
         inkscape:connector-curvature="0" />
      <path
         id="path55"
         d="m 1798.801,578.65724 q 0,15.62648 -4.5367,28.73256 -4.5367,12.85404 -13.1061,22.17952 -8.5693,9.07344 -20.6672,14.11424 -11.8459,5.0408 -26.7163,5.0408 -14.6183,0 -26.7162,-5.0408 -11.8459,-5.0408 -20.4152,-14.11424 -8.5694,-9.32548 -13.3582,-22.17952 -4.7887,-13.10608 -4.7887,-28.73256 0,-15.62648 4.7887,-28.48052 5.0408,-12.85404 13.6102,-21.92748 8.8214,-9.07344 20.6673,-14.11424 12.0979,-5.0408 26.2121,-5.0408 14.3663,0 26.2122,5.0408 12.0979,5.0408 20.6673,14.11424 8.5693,9.07344 13.3581,21.92748 4.7887,12.85404 4.7887,28.48052 z m -38.31,0 q 0,-17.39076 -7.0572,-27.22032 -6.805,-10.0816 -19.6591,-10.0816 -12.854,0 -19.9111,10.0816 -7.0571,9.82956 -7.0571,27.22032 0,17.39076 7.0571,27.7244 7.0571,10.0816 19.9111,10.0816 12.8541,0 19.6591,-10.0816 7.0572,-10.33364 7.0572,-27.7244 z"
         inkscape:connector-curvature="0" />
      <path
         id="path57"
         d="m 1826.6318,479.60553 37.5539,-6.04896 v 39.06619 h 45.1152 v 31.25296 h -45.1152 v 46.6274 q 0,11.84588 4.0327,18.903 4.2847,7.05712 16.8867,7.05712 6.0489,0 12.3499,-1.00816 6.5531,-1.2602 11.8459,-3.27652 l 5.2928,29.23664 q -6.805,2.77244 -15.1224,4.78876 -8.3173,2.01632 -20.4152,2.01632 -15.3744,0 -25.456,-4.03264 -10.0816,-4.28468 -16.1306,-11.59384 -6.049,-7.5612 -8.5694,-18.14688 -2.2683,-10.58568 -2.2683,-23.43972 z"
         inkscape:connector-curvature="0" />
      <path
         id="path59"
         d="m 1988.532,470.53209 q 4.5367,8.31732 10.3336,20.66727 6.049,12.09792 12.35,26.4642 6.553,14.11424 12.854,28.9846 6.301,14.87036 11.8459,27.97644 5.5449,-13.10608 11.8459,-27.97644 6.301,-14.87036 12.602,-28.9846 6.553,-14.36628 12.35,-26.4642 6.0489,-12.34995 10.5856,-20.66727 h 35.7897 q 2.5204,17.39075 4.5367,39.06619 2.2684,21.4234 3.7806,44.86312 1.7643,23.18768 3.0245,46.6274 1.5123,23.43972 2.5204,44.107 h -38.3101 q -0.7561,-25.45604 -2.0163,-55.4488 -1.2602,-29.99276 -3.7806,-60.4896 -4.5367,10.58568 -10.0816,23.43972 -5.5449,12.85404 -11.0897,25.70808 -5.2929,12.85404 -10.3337,24.69992 -5.0408,11.59384 -8.5693,19.91116 h -27.4724 q -3.5286,-8.31732 -8.5694,-19.91116 -5.0408,-11.84588 -10.5856,-24.69992 -5.2929,-12.85404 -10.8378,-25.70808 -5.5448,-12.85404 -10.0816,-23.43972 -2.5204,30.49684 -3.7806,60.4896 -1.2602,29.99276 -2.0163,55.4488 h -38.3101 q 1.0082,-20.66728 2.2684,-44.107 1.5122,-23.43972 3.0245,-46.6274 1.7643,-23.43972 3.7806,-44.86312 2.2683,-21.67544 4.7887,-39.06619 z"
         inkscape:connector-curvature="0" />
    </g>
  </g>
</svg>
