<?xml version="1.0" standalone="no"?>
<!DOCTYPE svg PUBLIC "-//W3C//DTD SVG 20010904//EN"
 "http://www.w3.org/TR/2001/REC-SVG-20010904/DTD/svg10.dtd">
<svg version="1.0" xmlns="http://www.w3.org/2000/svg"
 width="56.000000pt" height="120.000000pt" viewBox="0 0 56.000000 120.000000"
 preserveAspectRatio="xMidYMid meet">
<metadata>
Created by potrace 1.10, written by Peter Selinger 2001-2011
</metadata>
<g transform="translate(0.000000,120.000000) scale(0.100000,-0.100000)"
fill="#000000" stroke="none">
<path d="M364 1088 c3 -51 11 -145 16 -208 6 -63 15 -172 20 -242 6 -71 15
-188 20 -260 6 -73 13 -185 16 -249 l6 -116 56 5 c58 5 77 11 55 19 -9 3 -13
25 -13 63 0 32 -4 62 -10 65 -5 3 -10 30 -10 60 0 30 -4 57 -10 60 -5 3 -10
30 -10 59 0 28 -4 56 -9 62 -5 5 -12 34 -15 64 -3 30 -8 80 -11 110 -3 30 -10
64 -15 75 -5 11 -11 43 -14 70 -3 28 -10 82 -16 120 -23 155 -31 213 -36 273
-9 102 -27 75 -20 -30z m135 -939 c15 -78 14 -110 -3 -103 -23 9 -25 26 -31
177 l-4 142 14 -80 c7 -44 19 -105 24 -136z"/>
<path d="M315 1087 c-6 -7 -22 -28 -35 -47 -13 -19 -29 -40 -35 -46 -29 -33
-45 -55 -45 -64 0 -6 -4 -10 -10 -10 -5 0 -10 -7 -10 -15 0 -8 -4 -15 -10 -15
-5 0 -10 -9 -10 -20 0 -11 -4 -20 -10 -20 -5 0 -10 -7 -10 -15 0 -8 -4 -15
-10 -15 -5 0 -10 -6 -10 -14 0 -8 -13 -39 -29 -70 -30 -57 -28 -65 14 -56 12
2 83 -18 107 -31 10 -5 26 -9 35 -9 10 0 38 -16 62 -35 24 -19 46 -33 49 -31
2 3 1 18 -3 33 -5 15 -10 35 -11 43 -2 8 -4 113 -4 233 -1 119 -4 217 -8 217
-4 -1 -12 -6 -17 -13z m4 -257 l-1 -201 -23 15 c-26 17 -131 46 -139 38 -3 -3
-6 0 -6 6 0 7 -9 12 -20 12 -11 0 -20 2 -20 5 0 3 16 37 35 75 19 39 35 73 34
76 0 4 3 10 8 13 5 3 18 22 30 42 28 49 86 119 98 119 3 0 5 -90 4 -200z"/>
<path d="M52 615 c-7 -14 -12 -41 -12 -60 0 -19 -4 -35 -10 -35 -13 0 -13
-127 0 -135 6 -4 10 10 10 34 0 39 25 152 40 181 27 50 238 -36 241 -98 0 -9
2 -26 5 -37 8 -38 10 -265 2 -265 -4 0 -5 -7 -2 -15 8 -19 -5 -19 -30 0 -11 8
-28 15 -39 15 -11 0 -15 4 -11 12 4 6 3 8 -4 4 -6 -3 -13 -2 -17 4 -10 17
-102 12 -120 -7 -16 -15 -19 -15 -46 1 -37 22 -58 11 -30 -15 11 -10 27 -19
36 -19 8 0 15 -4 15 -8 0 -5 11 -14 25 -20 33 -15 42 -15 27 0 -7 7 -12 23
-12 36 0 22 2 23 43 17 23 -4 46 -11 52 -16 5 -5 17 -9 27 -9 10 0 18 -4 18
-10 0 -5 7 -10 16 -10 9 0 30 -14 46 -31 16 -17 32 -28 35 -26 2 3 4 97 4 209
l-1 203 -47 43 c-26 23 -55 42 -64 42 -10 0 -21 5 -24 10 -3 6 -19 10 -35 10
-16 0 -32 5 -35 10 -3 6 -25 10 -49 10 -36 0 -45 -4 -54 -25z"/>
<path d="M85 430 c-3 -5 3 -20 14 -32 18 -19 21 -20 21 -4 0 22 -26 50 -35 36z"/>
<path d="M200 426 c0 -8 6 -16 13 -19 10 -3 10 -9 0 -26 -18 -30 -16 -41 8
-41 19 0 20 2 8 17 -11 13 -11 17 -1 20 16 6 15 31 -2 49 -18 18 -26 18 -26 0z"/>
<path d="M265 429 c-4 -6 -2 -16 4 -22 14 -14 15 -47 1 -47 -5 0 -10 -4 -10
-10 0 -5 9 -10 20 -10 16 0 20 7 20 36 0 38 -23 73 -35 53z"/>
<path d="M144 418 c-4 -7 -2 -14 4 -16 15 -5 16 -42 2 -42 -5 0 -10 -4 -10
-10 0 -5 9 -10 20 -10 17 0 20 7 20 39 0 39 -22 62 -36 39z"/>
<path d="M76 364 c-9 -23 -8 -24 12 -24 27 0 33 10 17 26 -17 18 -21 18 -29
-2z"/>
</g>
</svg>
